<svg id="eWwHghus9Ce1" xmlns="http://www.w3.org/2000/svg" xmlns:xlink="http://www.w3.org/1999/xlink" viewBox="0 0 381.93 115.42" shape-rendering="geometricPrecision" text-rendering="geometricPrecision">
<style><![CDATA[
#eWwHghus9Ce3_ts {animation: eWwHghus9Ce3_ts__ts 4000ms linear infinite normal forwards}@keyframes eWwHghus9Ce3_ts__ts { 0% {transform: translate(53.714865px,60.738865px) scale(-0.000583,-0.000583)} 20% {transform: translate(53.714865px,60.738865px) scale(1.011115,1.011115)} 100% {transform: translate(53.714865px,60.738865px) scale(1.011115,1.011115)}} #eWwHghus9Ce4_ts {animation: eWwHghus9Ce4_ts__ts 4000ms linear infinite normal forwards}@keyframes eWwHghus9Ce4_ts__ts { 0% {transform: translate(185.805908px,57.675613px) scale(0.000456,0.000456)} 25% {transform: translate(185.805908px,57.675613px) scale(0.000456,0.000456)} 47.5% {transform: translate(185.805908px,57.675613px) scale(1.018979,1.018979)} 100% {transform: translate(185.805908px,57.675613px) scale(1.018979,1.018979)}} #eWwHghus9Ce5_ts {animation: eWwHghus9Ce5_ts__ts 4000ms linear infinite normal forwards}@keyframes eWwHghus9Ce5_ts__ts { 0% {transform: translate(326.049988px,31.085px) scale(0.003776,0.003776)} 50% {transform: translate(326.049988px,31.085px) scale(0.003776,0.003776)} 62.5% {transform: translate(326.049988px,31.085px) scale(-1.046721,-1.046721)} 87.5% {transform: translate(326.049988px,31.085px) scale(1.040125,1.040125)} 100% {transform: translate(326.049988px,31.085px) scale(1.040125,1.040125)}} #eWwHghus9Ce6_ts {animation: eWwHghus9Ce6_ts__ts 4000ms linear infinite normal forwards}@keyframes eWwHghus9Ce6_ts__ts { 0% {transform: translate(326.049988px,85.764997px) scale(0.003776,0.003776)} 50% {transform: translate(326.049988px,85.764997px) scale(0.003776,0.003776)} 62.5% {transform: translate(326.049988px,85.764997px) scale(-1.046721,-1.046721)} 87.5% {transform: translate(326.049988px,85.764997px) scale(1.040124,1.040124)} 100% {transform: translate(326.049988px,85.764997px) scale(1.040124,1.040124)}} #eWwHghus9Ce7_ts {animation: eWwHghus9Ce7_ts__ts 4000ms linear infinite normal forwards}@keyframes eWwHghus9Ce7_ts__ts { 0% {transform: translate(298.714996px,58.330006px) scale(0.003776,0.003776)} 50% {transform: translate(298.714996px,58.330006px) scale(0.003776,0.003776)} 62.5% {transform: translate(298.714996px,58.330006px) scale(-1.046721,-1.046721)} 87.5% {transform: translate(298.714996px,58.330006px) scale(1.040124,1.040124)} 100% {transform: translate(298.714996px,58.330006px) scale(1.040124,1.040124)}} #eWwHghus9Ce8_ts {animation: eWwHghus9Ce8_ts__ts 4000ms linear infinite normal forwards}@keyframes eWwHghus9Ce8_ts__ts { 0% {transform: translate(353.414993px,58.350002px) scale(0.003776,0.003776)} 50% {transform: translate(353.414993px,58.350002px) scale(0.003776,0.003776)} 62.5% {transform: translate(353.414993px,58.350002px) scale(-1.046721,-1.046721)} 87.5% {transform: translate(353.414993px,58.350002px) scale(1.040124,1.040124)} 100% {transform: translate(353.414993px,58.350002px) scale(1.040124,1.040124)}}
]]></style>
<g transform="translate(0 0.034324)"><g id="eWwHghus9Ce3_ts" transform="translate(53.714865,60.738865) scale(-0.000583,-0.000583)"><path d="M94,8.42L13.49,8.2c-4.186905-.038016-8.090872,2.109077-10.301014,5.665323s-2.406833,8.007345-.518986,11.744677l40.27,80.94c2.013546,4.117405,6.196618,6.728226,10.78,6.728226s8.766454-2.610821,10.78-6.728226l40.27-80.74c1.874083-3.727697,1.677406-8.161265-.519395-11.708374s-6.07836-5.698549-10.250605-5.681626Z" transform="translate(-53.714865,-60.738865)" fill="#181716"/></g><g id="eWwHghus9Ce4_ts" transform="translate(185.805908,57.675613) scale(0.000456,0.000456)"><path d="M128.17,113.11v0c-7.017152.003098-12.846423-5.411666-13.36-12.41-1.85-25.23-2.43-80.46,27.37-84.38c38.72-5.1,28.87,46.93,40.59,47.32s11.55-65,45.51-61.25c30.92,3.4,30.57,54.61,28.39,98.52-.249783,6.969757-6.089393,12.424829-13.06,12.2v0c-3.56341.000049-6.979861-1.420284-9.492995-3.946557s-3.915634-5.950081-3.897005-9.513443c.14-21.56-.67-61.07-8.55-57.34-10.78,5.1-16.85,61.73-38.42,63.3s-30.56-49.61-37.52-47.94c-4.67,1.11-4.67,25.56-4.17,41.62.116477,3.625152-1.242662,7.142476-3.766509,9.747373s-5.996469,4.074498-9.623491,4.072627Z" transform="translate(-185.805908,-57.675613)" fill="#181716"/></g><g id="eWwHghus9Ce5_ts" transform="translate(326.049988,31.085) scale(0.003776,0.003776)"><path d="M326.05,3.65c-8.48,0-15.37,4.61-15.37,22.49s13.65,32.38,15.37,32.38c1.49,0,15.37-14.5,15.37-32.38s-6.88-22.49-15.37-22.49Z" transform="translate(-326.049988,-31.085)" fill="#181716"/></g><g id="eWwHghus9Ce6_ts" transform="translate(326.049988,85.764997) scale(0.003776,0.003776)"><path d="M326.05,113.2c-8.48,0-15.37-4.61-15.37-22.49s13.65-32.38,15.37-32.38c1.49,0,15.37,14.5,15.37,32.38s-6.88,22.49-15.37,22.49Z" transform="translate(-326.049988,-85.764997)" fill="#181716"/></g><g id="eWwHghus9Ce7_ts" transform="translate(298.714996,58.330006) scale(0.003776,0.003776)"><path d="M271.28,58.33c0,8.49,4.61,15.37,22.49,15.37s32.38-13.64,32.38-15.37c0-1.49-14.5-15.37-32.38-15.37s-22.49,6.88-22.49,15.37Z" transform="translate(-298.714996,-58.330006)" fill="#181716"/></g><g id="eWwHghus9Ce8_ts" transform="translate(353.414993,58.350002) scale(0.003776,0.003776)"><path d="M380.83,58.33c0,8.49-4.61,15.37-22.49,15.37s-32.34-13.64-32.34-15.37C326,56.84,340.46,43,358.34,43s22.49,6.84,22.49,15.33Z" transform="translate(-353.414993,-58.350002)" fill="#181716"/></g></g></svg>
