<svg xmlns="http://www.w3.org/2000/svg" viewBox="0 0 381.93 115.42"><defs><style>.cls-1{fill:#181716;}</style></defs><g id="Linework"><path class="cls-1" d="M94,8.42,13.49,8.2A12,12,0,0,0,2.67,25.61l40.27,80.94a12,12,0,0,0,21.56,0l40.27-80.74A12,12,0,0,0,94,8.42Z"/><path class="cls-1" d="M128.17,113.11h0a13.39,13.39,0,0,1-13.36-12.41c-1.85-25.23-2.43-80.46,27.37-84.38,38.72-5.1,28.87,46.93,40.59,47.32s11.55-65,45.51-61.25c30.92,3.4,30.57,54.61,28.39,98.52a12.66,12.66,0,0,1-13.06,12.2h0a13.39,13.39,0,0,1-13.39-13.46c.14-21.56-.67-61.07-8.55-57.34-10.78,5.1-16.85,61.73-38.42,63.3S152.69,56,145.73,57.67c-4.67,1.11-4.67,25.56-4.17,41.62A13.39,13.39,0,0,1,128.17,113.11Z"/><path class="cls-1" d="M326.05,3.65c-8.48,0-15.37,4.61-15.37,22.49s13.65,32.38,15.37,32.38c1.49,0,15.37-14.5,15.37-32.38S334.54,3.65,326.05,3.65Z"/><path class="cls-1" d="M326.05,113.2c-8.48,0-15.37-4.61-15.37-22.49s13.65-32.38,15.37-32.38c1.49,0,15.37,14.5,15.37,32.38S334.54,113.2,326.05,113.2Z"/><path class="cls-1" d="M271.28,58.33c0,8.49,4.61,15.37,22.49,15.37s32.38-13.64,32.38-15.37c0-1.49-14.5-15.37-32.38-15.37S271.28,49.84,271.28,58.33Z"/><path class="cls-1" d="M380.83,58.33c0,8.49-4.61,15.37-22.49,15.37S326,60.06,326,58.33C326,56.84,340.46,43,358.34,43S380.83,49.84,380.83,58.33Z"/></g></svg>