<svg xmlns="http://www.w3.org/2000/svg" xmlns:xlink="http://www.w3.org/1999/xlink" viewBox="0 0 381.93 115.42"><defs><symbol id="v" data-name="v" viewBox="0 0 104.65 105.03"><path class="cls-1" d="M92.63.21,12.09,0A12,12,0,0,0,1.28,17.41L41.54,98.35a12,12,0,0,0,21.56,0l40.27-80.73A12,12,0,0,0,92.63.21Z"/></symbol><symbol id="m" data-name="m" viewBox="0 0 143.44 110.88"><path class="cls-2" d="M14.09,110.88h0A13.4,13.4,0,0,1,.73,98.46C-1.12,73.23-1.7,18,28.1,14.08,66.82,9,57,61,68.69,61.41S80.23-3.58,114.2.15c30.92,3.41,30.56,54.61,28.38,98.53a12.65,12.65,0,0,1-13.05,12.2h0a13.4,13.4,0,0,1-13.4-13.47c.14-21.56-.66-61.07-8.54-57.34-10.79,5.11-16.85,61.73-38.42,63.3S38.61,53.79,31.64,55.44C27,56.54,27,81,27.48,97.05A13.41,13.41,0,0,1,14.09,110.88Z"/></symbol><symbol id="top-petal" data-name="top-petal" viewBox="0 0 30.74 54.87"><path class="cls-3" d="M15.37,0C6.88,0,0,4.61,0,22.5S13.64,54.87,15.37,54.87c1.49,0,15.37-14.49,15.37-32.37S23.86,0,15.37,0Z"/></symbol><symbol id="bottom-petal" data-name="bottom-petal" viewBox="0 0 30.74 54.87"><path class="cls-1" d="M15.37,54.87C6.88,54.87,0,50.26,0,32.38S13.64,0,15.37,0c1.49,0,15.37,14.5,15.37,32.38S23.86,54.87,15.37,54.87Z"/></symbol><symbol id="left-petal" data-name="left-petal" viewBox="0 0 54.87 30.74"><path class="cls-1" d="M0,15.37c0,8.49,4.61,15.37,22.5,15.37S54.87,17.1,54.87,15.37C54.87,13.88,40.38,0,22.5,0S0,6.88,0,15.37Z"/></symbol><symbol id="right-petal" data-name="right-petal" viewBox="0 0 54.87 30.74"><path class="cls-1" d="M54.87,15.37c0,8.49-4.61,15.37-22.49,15.37S0,17.1,0,15.37C0,13.88,14.5,0,32.38,0S54.87,6.88,54.87,15.37Z"/></symbol></defs><g id="Linework"><use width="104.65" height="105.03" transform="translate(1.4 8.2)" xlink:href="#v"/><use width="143.44" height="110.88" transform="translate(114.09 2.24)" xlink:href="#m"/><use width="30.74" height="54.87" transform="translate(310.68 3.65)" xlink:href="#top-petal"/><use width="30.74" height="54.87" transform="translate(310.68 58.33)" xlink:href="#bottom-petal"/><use width="54.87" height="30.74" transform="translate(271.28 42.96)" xlink:href="#left-petal"/><use width="54.87" height="30.74" transform="translate(325.96 42.96)" xlink:href="#right-petal"/></g></svg>