<?xml version="1.0" encoding="UTF-8"?>
<svg id="Linework" xmlns="http://www.w3.org/2000/svg" viewBox="0 0 229.87 116.53">
  <defs>
    <style>
      .cls-1 {
        fill: #00f3d5;
        stroke-width: 0px;
      }
    </style>
  </defs>
  <path class="cls-1" d="m101.91,2.72l-85.01-.23c-9.45-.03-15.63,9.91-11.42,18.37l42.51,85.44c4.67,9.39,18.07,9.4,22.76.01L113.25,21.1c4.21-8.44-1.91-18.36-11.34-18.39Z"/>
  <path class="cls-1" d="m170.09,2.19c-8.62,0-15.61,4.69-15.61,22.85,0,18.16,13.86,32.89,15.61,32.89,1.51,0,15.61-14.72,15.61-32.89,0-18.16-6.99-22.85-15.61-22.85Z"/>
  <path class="cls-1" d="m170.09,113.47c-8.62,0-15.61-4.69-15.61-22.85,0-18.16,13.86-32.89,15.61-32.89,1.51,0,15.61,14.72,15.61,32.89,0,18.16-6.99,22.85-15.61,22.85Z"/>
  <path class="cls-1" d="m114.45,57.74c0,8.62,4.69,15.61,22.85,15.61s32.89-13.86,32.89-15.61c0-1.51-14.72-15.61-32.89-15.61-18.16,0-22.85,6.99-22.85,15.61Z"/>
  <path class="cls-1" d="m225.73,57.74c0,8.62-4.69,15.61-22.85,15.61s-32.89-13.86-32.89-15.61c0-1.51,14.72-15.61,32.89-15.61s22.85,6.99,22.85,15.61Z"/>
</svg>