<svg xmlns="http://www.w3.org/2000/svg" viewBox="0 0 229.87 116.53"><defs><style>.cls-1{fill:#fff;}</style></defs><g id="Linework"><path class="cls-1" d="M101.91,2.72l-85-.23A12.71,12.71,0,0,0,5.48,20.86L48,106.3a12.7,12.7,0,0,0,22.75,0L113.25,21.1A12.7,12.7,0,0,0,101.91,2.72Z"/><path class="cls-1" d="M170.09,2.19c-8.62,0-15.61,4.69-15.61,22.85s13.85,32.89,15.61,32.89c1.51,0,15.61-14.73,15.61-32.89S178.71,2.19,170.09,2.19Z"/><path class="cls-1" d="M170.09,113.47c-8.62,0-15.61-4.68-15.61-22.85s13.85-32.88,15.61-32.88c1.51,0,15.61,14.72,15.61,32.88S178.71,113.47,170.09,113.47Z"/><path class="cls-1" d="M114.45,57.74c0,8.62,4.68,15.61,22.85,15.61s32.88-13.86,32.88-15.61c0-1.51-14.72-15.62-32.88-15.62S114.45,49.11,114.45,57.74Z"/><path class="cls-1" d="M225.73,57.74c0,8.62-4.69,15.61-22.85,15.61S170,59.49,170,57.74c0-1.51,14.73-15.62,32.89-15.62S225.73,49.11,225.73,57.74Z"/></g></svg>